<svg xmlns="http://www.w3.org/2000/svg" viewBox="0 0 432.32 483.47"><defs><style>.cls-1{fill:#e6e6e6;}.cls-2{fill:#3fa9f5;}.cls-3{fill:#8cc63f;}.cls-4{fill:#22b573;}.cls-5{fill:#4d4d4d;}.cls-6{fill:#fbb03b;}.cls-7{fill:#2e3192;}.cls-8{fill:#fff;}.cls-9{fill:#662d91;}</style></defs><title>Asset 1</title><g id="Layer_2" data-name="Layer 2"><g id="Layer_1-2" data-name="Layer 1"><path class="cls-1" d="M37.9,252.25c-11.8,0-19.66-2.73-24.74-8.61-6.55-7.58-8.35-20.73-5.51-40.2,2.89-19.82,51.53-71.79,108.41-115.87C149.89,61.35,235.83.38,302.9.38,366.38.38,406,55.47,420.57,102.65c6.48,20.91,8.82,42.22,6.6,60-2.34,18.79-9.48,32.77-20.64,40.41C366,230.86,342.61,236.56,320,236.56c-11.84,0-24.14-1.64-38.4-3.54-20.36-2.71-45.71-6.09-80.68-6.09-38.14,0-74,8.27-105.64,15.56-22.73,5.24-42.35,9.76-57.39,9.76Z"/><path d="M302.9.75c27.74,0,53.77,11,75.29,31.68,18.6,17.92,33.53,42.9,42,70.33,6.46,20.86,8.8,42.12,6.59,59.85-2.33,18.69-9.41,32.57-20.48,40.15-40.48,27.74-63.78,33.42-86.31,33.42-11.81,0-24.11-1.64-38.35-3.53-20.37-2.71-45.73-6.09-80.73-6.09-38.18,0-74.06,8.27-105.72,15.57-22.71,5.23-42.32,9.75-57.31,9.75-11.68,0-19.45-2.7-24.45-8.49C7,235.91,5.2,222.85,8,203.49c2.88-19.73,51.45-71.6,108.27-115.63,32.23-25,65.09-46,95-60.82C246.54,9.6,277.36.75,302.9.75m0-.75C192.59,0,12.89,164.93,7.28,203.38c-5.53,37.9,6.77,49.25,30.62,49.25,35.62,0,97-25.32,163-25.32,59.32,0,90.21,9.62,119.08,9.62,24.82,0,48.14-7.11,86.73-33.55C459.13,167.49,413.21,0,302.9,0Z"/><path d="M177.46,261.73c-44.5,0-87-4.89-119.75-13.76-30-8.11-47.84-18.76-47.84-28.47,0-10.23,49-11.26,111-12.56,72.17-1.52,162-3.41,220.61-20.46,24.62-7.16,42.67-10.64,55.18-10.64,8.85,0,14.85,1.75,18.35,5.36,4.55,4.71,4.31,12.14,4.08,19.33s-.47,14.43,3.88,19.3c1.65,1.86,2.1,3.63,1.36,5.42-5.84,14.22-83.6,27.4-208,35.25-12.92.82-26,1.23-38.87,1.23Z"/><path d="M396.69,176.34c8.71,0,14.59,1.7,18,5.21,4.41,4.55,4.18,11.55,3.94,19-.23,7.2-.47,14.64,4,19.66,1.51,1.69,1.93,3.3,1.27,4.89-2,4.8-13.94,12.15-59.78,19.86-35.81,6-86.93,11.24-147.81,15.08-12.92.82-26,1.23-38.85,1.23-44.45,0-86.94-4.88-119.62-13.74-29.72-8.05-47.47-18.52-47.47-28,0-4.19,10.51-7.24,31.24-9.06,20-1.76,47.47-2.33,79.3-3C193.11,205.92,283,204,341.65,187c24.58-7.15,42.58-10.62,55-10.62m0-1c-11.66,0-29.15,3-55.32,10.66-110,32-332,10.58-332,33.5,0,20.25,72.52,42.73,168.09,42.73,12.61,0,25.61-.39,38.91-1.23,138.69-8.75,222.49-24.14,207-41.5-11.62-13,10.57-44.16-26.68-44.16Z"/><path class="cls-2" d="M208.77,483C162.44,483,112,455.8,70.43,408.43a299,299,0,0,1-54.95-91.22C2.63,282.89-2.08,248.78,1.87,218.56c.28-2.14,1.56-3.1,4.16-3.1,5.62,0,16.42,4.65,31.37,11.08,34.71,15,92.8,40,164,40,68.79,0,132-23.07,173.83-38.34,20.12-7.34,34.65-12.65,42.27-12.65,4.32,0,5.16,1.76,5.41,3.08,5.89,30.73,5.85,60.91-.11,89.7a206.49,206.49,0,0,1-33.26,77.11c-35.66,50.9-93.27,85-162.22,96.11A117.34,117.34,0,0,1,208.77,483Z"/><path d="M6,216c5.52,0,16.28,4.63,31.17,11,34.74,15,92.89,40,164.17,40,68.89,0,132.15-23.09,174-38.37,20.07-7.32,34.56-12.62,42.09-12.62,3.91,0,4.68,1.43,4.92,2.68,5.87,30.66,5.83,60.77-.11,89.5a206,206,0,0,1-33.18,76.92C353.52,435.91,296,470,227.21,481a116.24,116.24,0,0,1-18.44,1.46c-46.18,0-96.47-27.11-138-74.38A298.3,298.3,0,0,1,16,317C3.13,282.79-1.57,248.77,2.36,218.63,2.54,217.31,3.11,216,6,216m0-1c-2.75,0-4.34,1.08-4.66,3.54-15.14,115.93,97.73,265,207.4,265a117.3,117.3,0,0,0,18.6-1.47c137-22,221-133,196-263.5-.46-2.43-2.48-3.49-5.9-3.49-23.69,0-114.26,51-216.1,51S25,215,6,215Z"/><rect class="cls-3" x="249.87" y="276.5" width="115" height="38" rx="16.76" ry="16.76"/><path d="M348.11,277a16.27,16.27,0,0,1,16.26,16.26v4.48A16.27,16.27,0,0,1,348.11,314H266.63a16.28,16.28,0,0,1-16.26-16.26v-4.48A16.28,16.28,0,0,1,266.63,277h81.48m0-1H266.63a17.26,17.26,0,0,0-17.26,17.26v4.48A17.26,17.26,0,0,0,266.63,315h81.48a17.26,17.26,0,0,0,17.26-17.26v-4.48A17.26,17.26,0,0,0,348.11,276Z"/><path class="cls-4" d="M119.37,321.5c-14.88,0-24.62-1.58-31.59-5.13C79.09,312,74.87,304.31,74.87,293a44.5,44.5,0,0,1,89,0C163.87,318.05,142.48,321.5,119.37,321.5Z"/><path d="M119.37,249a44.05,44.05,0,0,1,44,44c0,11.1-4.13,18.6-12.63,22.93-6.9,3.51-16.57,5.07-31.37,5.07S94.9,319.44,88,315.93C79.5,311.6,75.37,304.1,75.37,293a44.05,44.05,0,0,1,44-44m0-1a45,45,0,0,0-45,45c0,24.85,20.15,29,45,29s45-4.15,45-29a45,45,0,0,0-45-45Z"/><path class="cls-5" d="M225.92,287.47c-2.6,0-5.23,0-7.9,0-12-.12-23.82-.13-35.26-.13-49.6,0-92.45-.05-124.45-8.88-35-9.66-52.58-29.19-55.44-61.46a3.36,3.36,0,0,1,.83-2.72c1.49-1.63,5-2.43,10.67-2.43,10,0,26,2.46,46.14,5.57,34.64,5.35,82.08,12.67,133.48,12.67h0c7.29,0,14.55-.15,21.58-.44,64.49-2.71,115.94-14.88,153.51-23.77C389.71,201,406,197.1,416,197.1a18.65,18.65,0,0,1,8.12,1.42c6.38,3.14,9.07,10.6,7,19.47-1.8,7.75-10.19,27.62-49.06,44.72C344.74,279.14,292.21,287.47,225.92,287.47Z"/><path d="M416,197.6a18.11,18.11,0,0,1,7.89,1.37c6.16,3,8.75,10.27,6.74,18.91-1.78,7.68-10.11,27.37-48.78,44.38-17.17,7.55-38,13.48-62,17.61-27.36,4.71-59,7.1-93.92,7.1-2.6,0-5.26,0-7.9,0-12-.12-23.83-.13-35.26-.13-49.58,0-92.39-.05-124.33-8.86-34.73-9.59-52.23-29-55.07-61a2.88,2.88,0,0,1,.7-2.34c1.37-1.5,4.84-2.26,10.3-2.26,10,0,25.91,2.46,46.06,5.57,34.66,5.35,82.13,12.67,133.56,12.67,7.3,0,14.56-.15,21.6-.44,64.54-2.72,116-14.89,153.61-23.79,20.6-4.87,36.86-8.72,46.81-8.72h0m0-1c-27.57,0-99,28.24-200.46,32.51-7.25.3-14.45.44-21.56.44-81.19,0-152.23-18.24-179.62-18.24-8.08,0-12.36,1.59-12,5.69,7,79,101.22,69.79,215.65,70.93,2.67,0,5.3,0,7.91,0,201,0,222.65-78,198.42-89.9A19.24,19.24,0,0,0,416,196.6Z"/><path class="cls-6" d="M147,252.6c-72,0-134.75-12.14-137.55-20.06-.48-1.37-.47-2.38,0-3.08.71-1,2.49-1.49,5.45-1.49,5.2,0,13.76,1.46,25.61,3.48,26.28,4.48,70.26,12,130,12s128-13.44,177.83-23.25c29.71-5.84,53.18-10.46,65.37-10.46,6,0,8.91,1.11,8.91,3.4,0,1.17.06,2.14.12,3,.1,1.71.17,2.75-.4,3.39-1,1.1-4.06,1.28-11.51,1.71-17.94,1-59.95,3.48-161.38,22.52C218.2,249.62,183.72,252.6,147,252.6Z"/><path d="M413.72,209.48v.5h0c5.75,0,8.66,1.06,8.66,3.15,0,1.18.07,2.19.12,3,.1,1.65.16,2.65-.34,3.22-.9,1-4,1.19-11.34,1.62-17.94,1-60,3.48-161.41,22.53-31.24,5.86-65.71,8.84-102.44,8.84-76.56,0-134.84-12.91-137.31-19.89-.45-1.29-.46-2.22,0-2.86.66-.93,2.38-1.38,5.25-1.38,5.18,0,13.73,1.46,25.57,3.48,26.29,4.48,70.28,12,130.05,12s128-13.44,177.88-23.25C378.1,214.6,401.56,210,413.72,210v-.5m0,0c-32.94,0-148.38,33.71-243.2,33.71-86.23,0-138.64-15.47-155.62-15.47-5,0-7,1.36-5.71,4.91C12,240.49,73,252.85,147,252.85c32.95,0,68.47-2.45,102.54-8.85C435.6,209.06,422.88,230,422.88,213.13c0-2.57-3.25-3.65-9.16-3.65Z"/><path class="cls-6" d="M39.31,263.25c-4.65,0-17.15-15.22-17.15-20.87,0-1.67-.39-4.67-.83-8.13-.95-7.36-2.24-17.43-.29-19.65a1.1,1.1,0,0,1,.87-.41c4.41,0,17.15,22.29,17.15,28.19a53.61,53.61,0,0,0,1,7.54c.88,5.18,1.89,11.06.4,12.82A1.39,1.39,0,0,1,39.31,263.25Z"/><path d="M21.91,214.44c4.34,0,16.9,22.1,16.9,27.94a53.88,53.88,0,0,0,1,7.58c.83,4.88,1.87,11,.46,12.62a1.13,1.13,0,0,1-.94.42c-4.58,0-16.9-15-16.9-20.62,0-1.69-.39-4.69-.84-8.17-.94-7.3-2.22-17.31-.34-19.45a.86.86,0,0,1,.68-.32m0-.5c-4.81,0,0,22.6,0,28.44s12.6,21.12,17.4,21.12,0-15.29,0-21.12-12.6-28.44-17.4-28.44Z"/><path class="cls-6" d="M18.06,260.41a1.54,1.54,0,0,1-1.46-1.13c-2.12-5,3.35-25.53,7.51-28.1a57.85,57.85,0,0,0,5.6-4.6c4.49-3.94,10.64-9.33,13.53-9.33a1.36,1.36,0,0,1,1.38.91c.94,2.23-.62,8.6-4.06,16.62-3.16,7.37-6.87,13.59-8.82,14.8a37.51,37.51,0,0,0-5.1,4.48C23.58,257,20.12,260.41,18.06,260.41Z"/><path d="M43.24,217.5h0a1.11,1.11,0,0,1,1.15.75c2,4.74-8.49,28.46-12.78,31.11a38.38,38.38,0,0,0-5.15,4.53c-3,2.94-6.44,6.27-8.4,6.27-.39,0-.87-.11-1.23-1-2.1-5,3.3-25.26,7.41-27.8a55.91,55.91,0,0,0,5.63-4.62c4.46-3.91,10.57-9.27,13.37-9.27m0-.5c-4.46,0-15.59,11.7-19.26,14-4.29,2.64-9.79,23.21-7.61,28.41a1.77,1.77,0,0,0,1.69,1.28c3.48,0,10.27-8.68,13.82-10.87,4.28-2.65,15.15-26.53,13-31.73A1.61,1.61,0,0,0,43.24,217Z"/><path class="cls-6" d="M72.11,266.5C67.46,266.5,55,251.28,55,245.63c0-1.67-.39-4.67-.83-8.13-1-7.36-2.24-17.43-.29-19.65a1.11,1.11,0,0,1,.87-.41c4.41,0,17.15,22.29,17.15,28.19a53.61,53.61,0,0,0,1,7.54c.88,5.18,1.89,11.06.4,12.82A1.38,1.38,0,0,1,72.11,266.5Z"/><path d="M54.71,217.69c4.34,0,16.9,22.1,16.9,27.94a53.88,53.88,0,0,0,1,7.58c.84,4.88,1.87,11,.46,12.62a1.13,1.13,0,0,1-.94.42c-4.58,0-16.9-15-16.9-20.62,0-1.69-.39-4.69-.83-8.17-.94-7.3-2.23-17.31-.35-19.45a.86.86,0,0,1,.68-.32m0-.5c-4.81,0,0,22.6,0,28.44s12.6,21.12,17.4,21.12,0-15.29,0-21.12-12.6-28.44-17.4-28.44Z"/><path class="cls-6" d="M50.86,263.66a1.54,1.54,0,0,1-1.46-1.13c-2.12-5,3.35-25.53,7.51-28.1a57.85,57.85,0,0,0,5.6-4.6c4.49-3.94,10.64-9.33,13.54-9.33a1.36,1.36,0,0,1,1.37.91c.94,2.23-.62,8.6-4.06,16.62-3.16,7.37-6.87,13.59-8.81,14.8a36.91,36.91,0,0,0-5.11,4.48C56.38,260.29,52.92,263.66,50.86,263.66Z"/><path d="M76.05,220.75h0a1.11,1.11,0,0,1,1.14.75c2,4.74-8.49,28.46-12.78,31.11a38.38,38.38,0,0,0-5.15,4.53c-3,2.94-6.44,6.27-8.4,6.27-.38,0-.87-.11-1.23-1-2.1-5,3.3-25.26,7.41-27.8A55.91,55.91,0,0,0,62.67,230c4.46-3.91,10.57-9.27,13.38-9.27m0-.5c-4.47,0-15.6,11.7-19.27,14-4.29,2.64-9.79,23.21-7.61,28.41a1.78,1.78,0,0,0,1.69,1.28c3.48,0,10.28-8.68,13.82-10.87,4.28-2.65,15.16-26.53,13-31.73a1.6,1.6,0,0,0-1.6-1.06Z"/><path class="cls-6" d="M106.25,269.75c-4.65,0-17.15-15.22-17.15-20.87,0-1.67-.39-4.67-.83-8.13-1-7.36-2.24-17.43-.29-19.65a1.11,1.11,0,0,1,.87-.41c4.41,0,17.15,22.29,17.15,28.19a53.61,53.61,0,0,0,1,7.54c.88,5.18,1.89,11.06.4,12.82A1.38,1.38,0,0,1,106.25,269.75Z"/><path d="M88.85,220.94c4.34,0,16.9,22.1,16.9,27.94a53.88,53.88,0,0,0,1,7.58c.84,4.88,1.87,11,.46,12.62a1.13,1.13,0,0,1-.94.42c-4.58,0-16.9-15-16.9-20.62,0-1.69-.39-4.69-.83-8.17-.94-7.3-2.23-17.31-.35-19.45a.86.86,0,0,1,.68-.32m0-.5c-4.81,0,0,22.6,0,28.44S101.45,270,106.25,270s0-15.29,0-21.12-12.6-28.44-17.4-28.44Z"/><path class="cls-6" d="M85,266.91a1.54,1.54,0,0,1-1.46-1.13c-2.12-5,3.35-25.53,7.51-28.1a57.85,57.85,0,0,0,5.6-4.6c4.49-3.94,10.64-9.33,13.54-9.33a1.36,1.36,0,0,1,1.37.91c.94,2.23-.62,8.6-4.06,16.62-3.16,7.37-6.87,13.59-8.81,14.8a36.91,36.91,0,0,0-5.11,4.48C90.52,263.54,87.06,266.91,85,266.91Z"/><path d="M110.19,224h0a1.11,1.11,0,0,1,1.14.75c2,4.74-8.49,28.46-12.78,31.11a38.38,38.38,0,0,0-5.15,4.53c-3,2.94-6.44,6.27-8.4,6.27-.38,0-.87-.11-1.23-1-2.1-5,3.3-25.26,7.41-27.8a55.91,55.91,0,0,0,5.63-4.62c4.46-3.91,10.57-9.27,13.38-9.27m0-.5c-4.47,0-15.6,11.7-19.27,14-4.29,2.64-9.79,23.21-7.61,28.41A1.78,1.78,0,0,0,85,267.16c3.48,0,10.28-8.68,13.82-10.87,4.28-2.65,15.16-26.53,13-31.73a1.6,1.6,0,0,0-1.6-1.06Z"/><path class="cls-6" d="M142.4,269.63c-4.61,0-17-15.13-17-20.75a81.7,81.7,0,0,0-.83-8.15c-.94-7.33-2.23-17.37-.32-19.55a1,1,0,0,1,.78-.37c4.37,0,17,22.2,17,28.07a53.59,53.59,0,0,0,1,7.56c.88,5.16,1.89,11,.44,12.72A1.3,1.3,0,0,1,142.4,269.63Z"/><path d="M125,221.19c4.16,0,16.65,22.23,16.65,27.69a54.15,54.15,0,0,0,1,7.62c.83,4.83,1.86,10.84.52,12.42a.89.89,0,0,1-.75.33c-4.36,0-16.65-15-16.65-20.37,0-1.71-.39-4.71-.84-8.2-.88-6.85-2.21-17.2-.4-19.25a.59.59,0,0,1,.49-.24m0-.75c-4.81,0,0,22.6,0,28.44S137.6,270,142.4,270s0-15.29,0-21.12-12.6-28.44-17.4-28.44Z"/><path class="cls-6" d="M121.15,266.78c-.39,0-1-.11-1.35-1-2.11-5,3.33-25.39,7.46-27.94a58.29,58.29,0,0,0,5.62-4.61c4.47-3.93,10.6-9.31,13.45-9.31a1.25,1.25,0,0,1,1.27.83c2,4.77-8.53,28.61-12.83,31.27a37.94,37.94,0,0,0-5.13,4.5C126.6,263.43,123.16,266.78,121.15,266.78Z"/><path d="M146.33,224.25h0a.87.87,0,0,1,.92.6c.87,2.08-.72,8.45-4.06,16.24-3.08,7.16-6.78,13.43-8.62,14.56a37.1,37.1,0,0,0-5.19,4.56c-2.84,2.76-6.38,6.2-8.23,6.2-.33,0-.7-.1-1-.82-2-4.77,3.39-25.06,7.31-27.49a56.47,56.47,0,0,0,5.67-4.64c4.43-3.89,10.49-9.21,13.2-9.21m0-.75c-4.46,0-15.59,11.7-19.27,14-4.28,2.64-9.79,23.21-7.6,28.41a1.77,1.77,0,0,0,1.69,1.28c3.48,0,10.27-8.68,13.81-10.87,4.29-2.65,15.16-26.53,13-31.73a1.61,1.61,0,0,0-1.61-1.06Z"/><path class="cls-6" d="M183.9,269.63c-4.61,0-17-15.13-17-20.75,0-1.68-.39-4.68-.84-8.15-.94-7.33-2.23-17.37-.31-19.55a1,1,0,0,1,.77-.37c4.38,0,17,22.2,17,28.07a52.37,52.37,0,0,0,1,7.56c.88,5.16,1.88,11,.43,12.72A1.28,1.28,0,0,1,183.9,269.63Z"/><path d="M166.5,221.19c4.16,0,16.65,22.23,16.65,27.69a52.92,52.92,0,0,0,1,7.62c.82,4.83,1.85,10.84.51,12.42a.89.89,0,0,1-.75.33c-4.35,0-16.65-15-16.65-20.37,0-1.71-.39-4.71-.84-8.2-.88-6.85-2.21-17.2-.4-19.25a.61.61,0,0,1,.49-.24m0-.75c-4.81,0,0,22.6,0,28.44S179.1,270,183.9,270s0-15.29,0-21.12-12.59-28.44-17.4-28.44Z"/><path class="cls-6" d="M162.65,266.78c-.39,0-1-.11-1.34-1-2.11-5,3.33-25.39,7.46-27.94a59.73,59.73,0,0,0,5.61-4.61c4.48-3.93,10.61-9.31,13.46-9.31a1.25,1.25,0,0,1,1.26.83c2,4.77-8.52,28.61-12.83,31.27a38.56,38.56,0,0,0-5.13,4.5C168.1,263.43,164.66,266.78,162.65,266.78Z"/><path d="M187.84,224.25h0a.86.86,0,0,1,.91.6c.88,2.08-.72,8.45-4.06,16.24-3.07,7.16-6.78,13.43-8.62,14.56a37.67,37.67,0,0,0-5.19,4.56c-2.84,2.76-6.37,6.2-8.23,6.2-.32,0-.7-.1-1-.82-2-4.77,3.4-25.06,7.31-27.49a56.47,56.47,0,0,0,5.67-4.64c4.43-3.89,10.5-9.21,13.21-9.21m0-.75c-4.47,0-15.6,11.7-19.27,14-4.28,2.64-9.79,23.21-7.61,28.41a1.78,1.78,0,0,0,1.69,1.28c3.48,0,10.28-8.68,13.82-10.87,4.28-2.65,15.16-26.53,13-31.73a1.62,1.62,0,0,0-1.61-1.06Z"/><path class="cls-6" d="M224.74,269.63c-4.62,0-17-15.13-17-20.75,0-1.68-.39-4.68-.83-8.15-.95-7.33-2.24-17.37-.32-19.55a1,1,0,0,1,.77-.37c4.38,0,17,22.2,17,28.07a53.83,53.83,0,0,0,1,7.56c.88,5.16,1.88,11,.43,12.72A1.28,1.28,0,0,1,224.74,269.63Z"/><path d="M207.33,221.19c4.17,0,16.66,22.23,16.66,27.69a54.15,54.15,0,0,0,1,7.62c.83,4.83,1.85,10.84.52,12.42a.91.91,0,0,1-.75.33c-4.36,0-16.66-15-16.66-20.37a82.09,82.09,0,0,0-.83-8.2c-.88-6.85-2.21-17.2-.41-19.25a.61.61,0,0,1,.49-.24m0-.75c-4.8,0,0,22.6,0,28.44S219.93,270,224.74,270s0-15.29,0-21.12-12.6-28.44-17.41-28.44Z"/><path class="cls-6" d="M203.48,266.78c-.38,0-.95-.11-1.34-1-2.11-5,3.33-25.39,7.46-27.94a58.29,58.29,0,0,0,5.62-4.61c4.47-3.93,10.6-9.31,13.45-9.31a1.24,1.24,0,0,1,1.26.83c2,4.77-8.52,28.61-12.83,31.27a38.58,38.58,0,0,0-5.12,4.5C208.94,263.43,205.49,266.78,203.48,266.78Z"/><path d="M228.67,224.25h0a.87.87,0,0,1,.92.6c.87,2.08-.73,8.45-4.06,16.24-3.08,7.16-6.78,13.43-8.62,14.56a37.66,37.66,0,0,0-5.2,4.56c-2.84,2.76-6.37,6.2-8.23,6.2-.32,0-.69-.1-1-.82-2-4.77,3.39-25.06,7.31-27.49a58.86,58.86,0,0,0,5.67-4.64c4.42-3.89,10.49-9.21,13.2-9.21m0-.75c-4.47,0-15.59,11.7-19.27,14-4.28,2.64-9.79,23.21-7.61,28.41a1.78,1.78,0,0,0,1.69,1.28c3.48,0,10.28-8.68,13.82-10.87,4.28-2.65,15.16-26.53,13-31.73a1.61,1.61,0,0,0-1.61-1.06Z"/><path class="cls-6" d="M266.91,266.38c-4.61,0-17-15.13-17-20.75a81.7,81.7,0,0,0-.83-8.15c-.94-7.33-2.23-17.37-.32-19.55a1,1,0,0,1,.78-.37c4.37,0,17,22.2,17,28.07a53.59,53.59,0,0,0,1,7.56c.89,5.16,1.89,11,.44,12.72A1.3,1.3,0,0,1,266.91,266.38Z"/><path d="M249.51,217.94c4.16,0,16.65,22.23,16.65,27.69a54.15,54.15,0,0,0,1,7.62c.83,4.83,1.86,10.84.52,12.42a.89.89,0,0,1-.75.33c-4.36,0-16.65-15-16.65-20.37,0-1.71-.39-4.71-.84-8.2-.88-6.85-2.21-17.2-.4-19.25a.6.6,0,0,1,.49-.24m0-.75c-4.81,0,0,22.6,0,28.44s12.6,21.12,17.4,21.12,0-15.29,0-21.12-12.6-28.44-17.4-28.44Z"/><path class="cls-6" d="M245.66,263.53c-.39,0-.95-.11-1.35-1-2.11-5,3.33-25.39,7.46-27.94a58.29,58.29,0,0,0,5.62-4.61c4.47-3.93,10.6-9.31,13.45-9.31a1.25,1.25,0,0,1,1.27.83c2,4.77-8.53,28.61-12.83,31.27a37.94,37.94,0,0,0-5.13,4.5C251.11,260.18,247.67,263.53,245.66,263.53Z"/><path d="M270.84,221h0a.87.87,0,0,1,.92.6c.87,2.08-.72,8.45-4.06,16.24-3.08,7.16-6.78,13.43-8.62,14.56a37.1,37.1,0,0,0-5.19,4.56c-2.84,2.76-6.38,6.2-8.23,6.2-.33,0-.7-.1-1-.82-2-4.77,3.39-25.06,7.31-27.49a56.47,56.47,0,0,0,5.67-4.64c4.43-3.89,10.49-9.21,13.2-9.21m0-.75c-4.46,0-15.59,11.7-19.26,14-4.29,2.64-9.8,23.21-7.61,28.41a1.77,1.77,0,0,0,1.69,1.28c3.48,0,10.27-8.68,13.81-10.87,4.29-2.65,15.16-26.53,13-31.73a1.61,1.61,0,0,0-1.61-1.06Z"/><path class="cls-6" d="M311.76,259.06c-4.61,0-17-15.12-17-20.75,0-1.67-.38-4.67-.83-8.14-.94-7.33-2.23-17.37-.32-19.55a1,1,0,0,1,.78-.37c4.38,0,17,22.2,17,28.06a53.53,53.53,0,0,0,1,7.57c.89,5.15,1.89,11,.44,12.72A1.29,1.29,0,0,1,311.76,259.06Z"/><path d="M294.36,210.63c4.16,0,16.65,22.23,16.65,27.68a54.08,54.08,0,0,0,1,7.63c.83,4.83,1.86,10.83.52,12.42a.89.89,0,0,1-.75.33c-4.36,0-16.65-15.05-16.65-20.38,0-1.7-.39-4.71-.84-8.19-.88-6.85-2.21-17.2-.4-19.25a.6.6,0,0,1,.49-.24m0-.75c-4.81,0,0,22.6,0,28.43s12.6,21.13,17.4,21.13,0-15.29,0-21.13-12.6-28.43-17.4-28.43Z"/><path class="cls-6" d="M290.51,256.22c-.39,0-.95-.11-1.35-1.05-2.1-5,3.33-25.39,7.46-27.95a55.35,55.35,0,0,0,5.62-4.61c4.48-3.92,10.6-9.3,13.45-9.3a1.24,1.24,0,0,1,1.27.83c2,4.76-8.53,28.61-12.83,31.27a37.25,37.25,0,0,0-5.13,4.5C296,252.87,292.52,256.22,290.51,256.22Z"/><path d="M315.69,213.69h0a.87.87,0,0,1,.92.6c.87,2.07-.72,8.45-4.06,16.23-3.08,7.17-6.78,13.43-8.62,14.57a37.59,37.59,0,0,0-5.19,4.55c-2.84,2.77-6.38,6.21-8.23,6.21-.33,0-.7-.1-1-.82-2-4.78,3.39-25.07,7.31-27.49a56.47,56.47,0,0,0,5.67-4.64c4.43-3.89,10.49-9.21,13.2-9.21m0-.75c-4.46,0-15.59,11.69-19.26,14-4.29,2.65-9.79,23.22-7.61,28.42a1.77,1.77,0,0,0,1.69,1.28c3.48,0,10.27-8.68,13.82-10.87,4.28-2.65,15.15-26.54,13-31.73a1.61,1.61,0,0,0-1.61-1.06Z"/><path class="cls-6" d="M350.59,247.69c-4.62,0-17-15.13-17-20.75,0-1.68-.39-4.68-.83-8.15-1-7.33-2.24-17.36-.32-19.55a1,1,0,0,1,.77-.36c4.38,0,17,22.19,17,28.06a53.47,53.47,0,0,0,1,7.56c.88,5.16,1.88,11,.43,12.73A1.27,1.27,0,0,1,350.59,247.69Z"/><path d="M333.18,199.25c4.17,0,16.66,22.23,16.66,27.69a52.53,52.53,0,0,0,1,7.62c.82,4.83,1.85,10.84.51,12.42a.88.88,0,0,1-.74.33c-4.36,0-16.66-15-16.66-20.37a82.38,82.38,0,0,0-.83-8.2c-.88-6.84-2.21-17.19-.41-19.25a.61.61,0,0,1,.49-.24m0-.75c-4.8,0,0,22.6,0,28.44s12.6,21.12,17.41,21.12,0-15.29,0-21.12S338,198.5,333.18,198.5Z"/><path class="cls-6" d="M329.33,244.85c-.39,0-.95-.11-1.34-1-2.11-5,3.33-25.4,7.46-28a58.29,58.29,0,0,0,5.62-4.61c4.47-3.93,10.6-9.3,13.45-9.3a1.24,1.24,0,0,1,1.26.83c2,4.76-8.52,28.6-12.83,31.26a38,38,0,0,0-5.12,4.51C334.79,241.49,331.34,244.85,329.33,244.85Z"/><path d="M354.52,202.31h0a.87.87,0,0,1,.92.6c.87,2.08-.73,8.45-4.07,16.24-3.07,7.17-6.77,13.43-8.61,14.56a39.07,39.07,0,0,0-5.2,4.56c-2.84,2.76-6.37,6.2-8.23,6.2-.32,0-.69-.1-1-.82-2-4.77,3.4-25.06,7.32-27.48a59.79,59.79,0,0,0,5.66-4.65c4.43-3.89,10.5-9.21,13.21-9.21m0-.75c-4.47,0-15.6,11.7-19.27,14-4.28,2.65-9.79,23.21-7.61,28.41a1.78,1.78,0,0,0,1.69,1.28c3.48,0,10.28-8.68,13.82-10.87,4.28-2.65,15.16-26.53,13-31.73a1.61,1.61,0,0,0-1.61-1.06Z"/><path class="cls-6" d="M383.39,247.69c-4.62,0-17-15.13-17-20.75,0-1.68-.39-4.68-.83-8.15-.95-7.33-2.24-17.36-.32-19.55a1,1,0,0,1,.77-.36c4.38,0,17,22.19,17,28.06a53.47,53.47,0,0,0,1,7.56c.88,5.16,1.88,11,.43,12.73A1.27,1.27,0,0,1,383.39,247.69Z"/><path d="M366,199.25c4.17,0,16.66,22.23,16.66,27.69a54,54,0,0,0,1,7.62c.83,4.83,1.85,10.84.52,12.42a.91.91,0,0,1-.75.33c-4.36,0-16.66-15-16.66-20.37a82.38,82.38,0,0,0-.83-8.2c-.88-6.84-2.21-17.19-.41-19.25a.61.61,0,0,1,.49-.24m0-.75c-4.8,0,0,22.6,0,28.44s12.6,21.12,17.41,21.12,0-15.29,0-21.12S370.79,198.5,366,198.5Z"/><rect class="cls-7" x="278.26" y="61.21" width="9.5" height="97.52"/><path class="cls-8" d="M287.64,61.34V158.6h-9.25V61.34h9.25m.25-.25h-9.75v97.76h9.75V61.09Z"/><path class="cls-6" d="M362.13,244.85c-.38,0-.95-.11-1.34-1-2.11-5,3.33-25.4,7.46-28a58.29,58.29,0,0,0,5.62-4.61c4.47-3.93,10.6-9.3,13.45-9.3a1.23,1.23,0,0,1,1.26.83c2,4.76-8.52,28.6-12.83,31.26a38,38,0,0,0-5.12,4.51C367.59,241.49,364.14,244.85,362.13,244.85Z"/><path d="M387.32,202.31h0a.87.87,0,0,1,.92.6c.87,2.08-.73,8.45-4.06,16.24-3.08,7.17-6.78,13.43-8.62,14.56a39.07,39.07,0,0,0-5.2,4.56c-2.83,2.76-6.37,6.2-8.23,6.2-.32,0-.69-.1-1-.82-2-4.77,3.39-25.06,7.31-27.48a60.93,60.93,0,0,0,5.67-4.65c4.42-3.89,10.49-9.21,13.2-9.21m0-.75c-4.47,0-15.59,11.7-19.27,14-4.28,2.65-9.79,23.21-7.61,28.41a1.78,1.78,0,0,0,1.69,1.28c3.48,0,10.28-8.68,13.82-10.87,4.28-2.65,15.16-26.53,13-31.73a1.61,1.61,0,0,0-1.61-1.06Z"/><path class="cls-6" d="M421.55,241.19c-4.62,0-17-15.13-17-20.75,0-1.68-.39-4.68-.84-8.15-.94-7.33-2.23-17.36-.31-19.55a1,1,0,0,1,.77-.36c4.38,0,17,22.19,17,28.06a52,52,0,0,0,1,7.56c.88,5.16,1.88,11,.43,12.73A1.27,1.27,0,0,1,421.55,241.19Z"/><path d="M404.14,192.75c4.17,0,16.66,22.23,16.66,27.69a52.53,52.53,0,0,0,1,7.62c.82,4.83,1.85,10.84.51,12.42a.88.88,0,0,1-.74.33c-4.36,0-16.66-15-16.66-20.37,0-1.7-.39-4.71-.83-8.2-.89-6.84-2.22-17.19-.41-19.25a.61.61,0,0,1,.49-.24m0-.75c-4.81,0,0,22.6,0,28.44s12.6,21.12,17.41,21.12,0-15.29,0-21.12S409,192,404.14,192Z"/><path class="cls-6" d="M400.29,238.35c-.39,0-1-.11-1.34-1-2.11-5,3.33-25.4,7.46-28a58.45,58.45,0,0,0,5.61-4.61c4.48-3.93,10.61-9.3,13.46-9.3a1.24,1.24,0,0,1,1.26.83c2,4.76-8.52,28.6-12.83,31.26a38,38,0,0,0-5.13,4.51C405.74,235,402.3,238.35,400.29,238.35Z"/><path d="M425.48,195.81h0a.86.86,0,0,1,.91.6c.88,2.08-.72,8.45-4.06,16.24-3.07,7.17-6.78,13.43-8.62,14.56a39.09,39.09,0,0,0-5.19,4.56c-2.84,2.76-6.37,6.2-8.23,6.2-.32,0-.7-.1-1-.82-2-4.77,3.4-25.06,7.31-27.48a58.38,58.38,0,0,0,5.67-4.65c4.43-3.89,10.5-9.21,13.21-9.21m0-.75c-4.47,0-15.6,11.7-19.27,14-4.28,2.65-9.79,23.21-7.61,28.41a1.78,1.78,0,0,0,1.69,1.28c3.48,0,10.28-8.68,13.82-10.87,4.28-2.65,15.16-26.53,13-31.73a1.61,1.61,0,0,0-1.61-1.06Z"/><path class="cls-7" d="M283.49,62.29C272.73,62.29,264,56,264,48.21s8.75-14.08,19.51-14.08S303,40.44,303,48.21,294.25,62.29,283.49,62.29Z"/><path class="cls-8" d="M283.49,34.25c10.69,0,19.39,6.26,19.39,14s-8.7,14-19.39,14-19.39-6.27-19.39-14,8.7-14,19.39-14m0-.25c-10.84,0-19.64,6.36-19.64,14.21s8.8,14.21,19.64,14.21,19.64-6.37,19.64-14.21S294.34,34,283.49,34Z"/><ellipse class="cls-1" cx="283.49" cy="48.21" rx="13.56" ry="9.78"/><path class="cls-8" d="M283.49,38.56c7.41,0,13.44,4.33,13.44,9.65s-6,9.65-13.44,9.65-13.44-4.33-13.44-9.65,6-9.65,13.44-9.65m0-.25c-7.56,0-13.69,4.43-13.69,9.9s6.13,9.9,13.69,9.9,13.69-4.43,13.69-9.9-6.13-9.9-13.69-9.9Z"/><path class="cls-7" d="M283.47,165.62c-23.3,0-42.21-7.33-42.21-12.12,0-.56.24-1.31,2.29-1.31s5.73.79,10.25,1.8c7.68,1.71,18.2,4,29.82,4.32l2.68,0a114.68,114.68,0,0,0,31.92-4.67,30.93,30.93,0,0,1,6.3-1.36c1,0,1.45.35,1.45,1.19C326,158.29,306.93,165.62,283.47,165.62Z"/><path class="cls-8" d="M243.55,152.06v.25c2.15,0,5.71.8,10.22,1.8,7.69,1.71,18.22,4,29.84,4.32.91,0,1.81,0,2.69,0a114.79,114.79,0,0,0,31.95-4.68,30.89,30.89,0,0,1,6.27-1.36c1.1,0,1.33.43,1.33,1.07,0,2.3-4.85,5.32-12.35,7.71a102.35,102.35,0,0,1-30,4.28c-23.23,0-42.08-7.25-42.08-12,0-.55.25-1.19,2.16-1.19v-.25m0,0c-1.56,0-2.41.41-2.41,1.44,0,4.86,18.87,12.24,42.33,12.24s42.63-7.38,42.63-12.24c0-.94-.53-1.32-1.58-1.32-4.23,0-16.94,6-38.22,6l-2.68,0c-18.5-.44-34.24-6.13-40.07-6.13Z"/><path class="cls-7" d="M326.39,156.38a.56.56,0,0,1-.49-.18,4.17,4.17,0,0,0-3.19-2.1,12.27,12.27,0,0,1-3.75-1.38.77.77,0,0,1-.44-.93c.72-2.79,11.84-8.31,18.1-8.31.89,0,1.41.14,1.57.41s-.17,1-.61,1.75a6,6,0,0,0-1.08,2.88C336.5,151.09,328.71,156.38,326.39,156.38Z"/><path class="cls-8" d="M336.62,143.61c1,0,1.37.18,1.46.34s-.21.94-.61,1.63a6.21,6.21,0,0,0-1.1,2.94c0,1.09-1.57,2.92-4.11,4.79-2.32,1.71-4.79,2.95-5.87,2.95a.5.5,0,0,1-.39-.13,4.31,4.31,0,0,0-3.26-2.15,12.16,12.16,0,0,1-3.72-1.37.63.63,0,0,1-.38-.78c.65-2.52,11.34-8.22,18-8.22m0-.25c-7.49,0-21.13,7.58-17.72,9.47,4,2.21,5,.63,6.89,3.44a.69.69,0,0,0,.6.24c2.4,0,10.23-5.32,10.23-8s3.94-5.16,0-5.16Z"/><path class="cls-7" d="M242.17,156.93c-2.83,0-11.4-7.09-13.48-11.16l-.58-1.13c-1.08-2.08-1.62-3.13-1.36-3.76.19-.47.87-.77,2.06-1.16a1.33,1.33,0,0,1,.42-.06c3.77,0,16.37,9.25,17.65,11.8.1.2.12.36.07.43a3.5,3.5,0,0,1-2.17,1.5c-.86.24-1.48.42-1.8,2.87A.7.7,0,0,1,242.17,156.93Z"/><path class="cls-8" d="M229.23,139.79h0c3.61,0,16.3,9.26,17.53,11.73a.49.49,0,0,1,.09.3,3.44,3.44,0,0,1-2.1,1.45c-1,.27-1.58.56-1.89,3-.05.39-.26.56-.69.56-2.73,0-11.35-7.15-13.36-11.08l-.59-1.14c-1-2-1.59-3.07-1.36-3.65s.86-.72,2-1.09a1.35,1.35,0,0,1,.38-.05m0-.25a1.6,1.6,0,0,0-.46.06c-3.19,1-2.63,1.45-.19,6.23,2.07,4,10.7,11.22,13.59,11.22a.83.83,0,0,0,.94-.78c.53-4.11,1.88-1.57,3.94-4.3,1.06-1.43-13.77-12.43-17.82-12.43Z"/><rect class="cls-7" x="260.93" y="87.07" width="45.31" height="5.91"/><path class="cls-8" d="M306.11,87.19v5.66H261.05V87.19h45.06m.25-.25H260.8V93.1h45.56V86.94Z"/><path class="cls-9" d="M180.24,447.5a34.08,34.08,0,0,1-8.74-1c-17-4.62-28.58-12.32-34.5-22.9-8.33-14.89-3.46-31.52-1.12-39.51a20.25,20.25,0,0,0,1-4.11c0-.33.88-3.34,31.47-5.87,20.57-1.69,47.93-2.63,77-2.63,59.14,0,106.07,4.29,108.52,8.12.06.1.05.13,0,.17-1.22,2.64-31.89,19.26-70.16,35.95C256.56,427.6,206.94,447.5,180.24,447.5Z"/><path d="M245.37,372c27.24,0,53.83.91,74.85,2.57,23.72,1.86,31.86,4.06,33.12,5.18-2.5,2.92-30.57,18.45-70.17,35.7C256.11,427.23,206.76,447,180.24,447a33.48,33.48,0,0,1-8.61-1c-16.84-4.59-28.34-12.21-34.19-22.67-8.23-14.7-3.4-31.19-1.08-39.12a20.44,20.44,0,0,0,1-4.2c.23-.41,2.87-3.18,32.4-5.53,20.39-1.63,47.24-2.52,75.6-2.52m0-1c-60.2,0-109,4-109,9s-23.09,51.2,35,67a34.35,34.35,0,0,0,8.87,1c47.11,0,171.43-62.15,174.13-68,2.09-4.51-48.8-9-109-9Z"/></g></g></svg>